solid csg.js
facet normal -1 0 0
outer loop
vertex 0 0 0
vertex 0 0 3
vertex 0 3.1583663988384045 3
endloop
endfacet
facet normal -1 0 0
outer loop
vertex 0 0 0
vertex 0 3.1583663988384045 3
vertex 0 3.934823534145964 3
endloop
endfacet
facet normal -1 0 0
outer loop
vertex 0 0 0
vertex 0 3.934823534145964 3
vertex 0 4.374815910820243 3
endloop
endfacet
facet normal -1 0 0
outer loop
vertex 0 0 0
vertex 0 4.374815910820243 3
vertex 0 5.1512730461278045 3
endloop
endfacet
facet normal -1 0 0
outer loop
vertex 0 0 0
vertex 0 5.1512730461278045 3
vertex 0 12.878679656440358 3
endloop
endfacet
facet normal -1 0 0
outer loop
vertex 0 0 0
vertex 0 12.878679656440358 3
vertex 0 17.121320343559645 3
endloop
endfacet
facet normal -1 0 0
outer loop
vertex 0 0 0
vertex 0 17.121320343559645 3
vertex 0 24.848726953872195 3
endloop
endfacet
facet normal -1 0 0
outer loop
vertex 0 0 0
vertex 0 24.848726953872195 3
vertex 0 25.625184089179754 3
endloop
endfacet
facet normal -1 0 0
outer loop
vertex 0 0 0
vertex 0 25.625184089179754 3
vertex 0 26.065176465854037 3
endloop
endfacet
facet normal -1 0 0
outer loop
vertex 0 0 0
vertex 0 26.065176465854037 3
vertex 0 26.841633601161597 3
endloop
endfacet
facet normal -1 0 0
outer loop
vertex 0 0 0
vertex 0 26.841633601161597 3
vertex 0 30 3
endloop
endfacet
facet normal -1 0 0
outer loop
vertex 0 0 0
vertex 0 30 3
vertex 0 30 0
endloop
endfacet
facet normal 1 0 0
outer loop
vertex 20 0 0
vertex 20 30 0
vertex 20 30 3
endloop
endfacet
facet normal 1 0 0
outer loop
vertex 20 0 0
vertex 20 30 3
vertex 20 26.841633601161597 3
endloop
endfacet
facet normal 1 0 0
outer loop
vertex 20 0 0
vertex 20 26.841633601161597 3
vertex 20 19.114226990849048 3
endloop
endfacet
facet normal 1 0 0
outer loop
vertex 20 0 0
vertex 20 19.114226990849048 3
vertex 20 18.337769855541488 3
endloop
endfacet
facet normal 1 0 0
outer loop
vertex 20 0 0
vertex 20 18.337769855541488 3
vertex 20 17.897777478867205 3
endloop
endfacet
facet normal 1 0 0
outer loop
vertex 20 0 0
vertex 20 17.897777478867205 3
vertex 20 17.121320343559645 3
endloop
endfacet
facet normal 1 0 0
outer loop
vertex 20 0 0
vertex 20 17.121320343559645 3
vertex 20 12.878679656440358 3
endloop
endfacet
facet normal 1 0 0
outer loop
vertex 20 0 0
vertex 20 12.878679656440358 3
vertex 20 12.102222521132795 3
endloop
endfacet
facet normal 1 0 0
outer loop
vertex 20 0 0
vertex 20 12.102222521132795 3
vertex 20 11.66223014445851 3
endloop
endfacet
facet normal 1 0 0
outer loop
vertex 20 0 0
vertex 20 11.66223014445851 3
vertex 20 10.885773009150947 3
endloop
endfacet
facet normal 1 0 0
outer loop
vertex 20 0 0
vertex 20 10.885773009150947 3
vertex 20 3.1583663988384045 3
endloop
endfacet
facet normal 1 0 0
outer loop
vertex 20 0 0
vertex 20 3.1583663988384045 3
vertex 20 0 3
endloop
endfacet
facet normal 0 -1 0
outer loop
vertex 0 0 0
vertex 20 0 0
vertex 20 0 3
endloop
endfacet
facet normal 0 -1 0
outer loop
vertex 0 0 0
vertex 20 0 3
vertex 0 0 3
endloop
endfacet
facet normal 0 1 0
outer loop
vertex 0 30 0
vertex 0 30 3
vertex 20 30 3
endloop
endfacet
facet normal 0 1 0
outer loop
vertex 0 30 0
vertex 20 30 3
vertex 20 30 0
endloop
endfacet
facet normal 0 0 -1
outer loop
vertex 0 0 0
vertex 0 30 0
vertex 20 30 0
endloop
endfacet
facet normal 0 0 -1
outer loop
vertex 0 0 0
vertex 20 30 0
vertex 20 0 0
endloop
endfacet
facet normal 0 0 1
outer loop
vertex 20 0 3
vertex 20 3.1583663988384045 3
vertex 11.692841887430882 3.1583663988384045 3
endloop
endfacet
facet normal 0 0 1
outer loop
vertex 20 0 3
vertex 11.692841887430882 3.1583663988384045 3
vertex 0 3.1583663988384045 3
endloop
endfacet
facet normal 0 0 1
outer loop
vertex 20 0 3
vertex 0 3.1583663988384045 3
vertex 0 0 3
endloop
endfacet
facet normal 0 0 1
outer loop
vertex 11.692841887430882 3.1583663988384045 3
vertex 8.795064408563677 3.934823534145964 3
vertex 0 3.934823534145964 3
endloop
endfacet
facet normal 0 0 1
outer loop
vertex 11.692841887430882 3.1583663988384045 3
vertex 0 3.934823534145964 3
vertex 0 3.1583663988384045 3
endloop
endfacet
facet normal 0 0 1
outer loop
vertex 8.795064408563677 3.934823534145964 3
vertex 8.912960010569401 4.374815910820243 3
vertex 7.152990503872278 4.374815910820243 3
endloop
endfacet
facet normal 0 0 1
outer loop
vertex 8.795064408563677 3.934823534145964 3
vertex 7.152990503872278 4.374815910820243 3
vertex 0 4.374815910820243 3
endloop
endfacet
facet normal 0 0 1
outer loop
vertex 8.795064408563677 3.934823534145964 3
vertex 0 4.374815910820243 3
vertex 0 3.934823534145964 3
endloop
endfacet
facet normal 0 0 1
outer loop
vertex 7.152990503872278 4.374815910820243 3
vertex 4.2552130250050695 5.1512730461278045 3
vertex 0 5.1512730461278045 3
endloop
endfacet
facet normal 0 0 1
outer loop
vertex 7.152990503872278 4.374815910820243 3
vertex 0 5.1512730461278045 3
vertex 0 4.374815910820243 3
endloop
endfacet
facet normal 0 0 1
outer loop
vertex 20 3.1583663988384045 3
vertex 20 10.885773009150947 3
vertex 13.763394248251055 10.885773009150947 3
endloop
endfacet
facet normal 0 0 1
outer loop
vertex 20 3.1583663988384045 3
vertex 13.763394248251055 10.885773009150947 3
vertex 11.692841887430882 3.1583663988384045 3
endloop
endfacet
facet normal 0 0 1
outer loop
vertex 8.912960010569401 4.374815910820243 3
vertex 10.86561676938385 11.66223014445851 3
vertex 9.105647262686716 11.66223014445851 3
endloop
endfacet
facet normal 0 0 1
outer loop
vertex 8.912960010569401 4.374815910820243 3
vertex 9.105647262686716 11.66223014445851 3
vertex 7.152990503872278 4.374815910820243 3
endloop
endfacet
facet normal 0 0 1
outer loop
vertex 20 10.885773009150947 3
vertex 20 11.66223014445851 3
vertex 10.86561676938385 11.66223014445851 3
endloop
endfacet
facet normal 0 0 1
outer loop
vertex 20 10.885773009150947 3
vertex 10.86561676938385 11.66223014445851 3
vertex 13.763394248251055 10.885773009150947 3
endloop
endfacet
facet normal 0 0 1
outer loop
vertex 10.86561676938385 11.66223014445851 3
vertex 20 11.66223014445851 3
vertex 20 12.102222521132795 3
endloop
endfacet
facet normal 0 0 1
outer loop
vertex 10.86561676938385 11.66223014445851 3
vertex 20 12.102222521132795 3
vertex 9.22354286469244 12.102222521132795 3
endloop
endfacet
facet normal 0 0 1
outer loop
vertex 10.86561676938385 11.66223014445851 3
vertex 9.22354286469244 12.102222521132795 3
vertex 9.105647262686716 11.66223014445851 3
endloop
endfacet
facet normal 0 0 1
outer loop
vertex 4.2552130250050695 5.1512730461278045 3
vertex 6.325765385825235 12.878679656440358 3
vertex 0 12.878679656440358 3
endloop
endfacet
facet normal 0 0 1
outer loop
vertex 4.2552130250050695 5.1512730461278045 3
vertex 0 12.878679656440358 3
vertex 0 5.1512730461278045 3
endloop
endfacet
facet normal 0 0 1
outer loop
vertex 20 12.102222521132795 3
vertex 20 12.878679656440358 3
vertex 6.325765385825235 12.878679656440358 3
endloop
endfacet
facet normal 0 0 1
outer loop
vertex 20 12.102222521132795 3
vertex 6.325765385825235 12.878679656440358 3
vertex 9.22354286469244 12.102222521132795 3
endloop
endfacet
facet normal 0 0 1
outer loop
vertex 6.325765385825235 12.878679656440358 3
vertex 20 12.878679656440358 3
vertex 20 17.121320343559645 3
endloop
endfacet
facet normal 0 0 1
outer loop
vertex 6.325765385825235 12.878679656440358 3
vertex 20 17.121320343559645 3
vertex 6.325765385825234 17.121320343559645 3
endloop
endfacet
facet normal 0 0 1
outer loop
vertex 6.325765385825235 12.878679656440358 3
vertex 6.325765385825234 17.121320343559645 3
vertex 0 17.121320343559645 3
endloop
endfacet
facet normal 0 0 1
outer loop
vertex 6.325765385825235 12.878679656440358 3
vertex 0 17.121320343559645 3
vertex 0 12.878679656440358 3
endloop
endfacet
facet normal 0 0 1
outer loop
vertex 20 17.121320343559645 3
vertex 20 17.897777478867205 3
vertex 9.22354286469244 17.897777478867205 3
endloop
endfacet
facet normal 0 0 1
outer loop
vertex 20 17.121320343559645 3
vertex 9.22354286469244 17.897777478867205 3
vertex 6.325765385825234 17.121320343559645 3
endloop
endfacet
facet normal 0 0 1
outer loop
vertex 20 17.897777478867205 3
vertex 20 18.337769855541488 3
vertex 10.865616769383854 18.337769855541488 3
endloop
endfacet
facet normal 0 0 1
outer loop
vertex 20 17.897777478867205 3
vertex 10.865616769383854 18.337769855541488 3
vertex 9.105647262686716 18.337769855541488 3
endloop
endfacet
facet normal 0 0 1
outer loop
vertex 20 17.897777478867205 3
vertex 9.105647262686716 18.337769855541488 3
vertex 9.22354286469244 17.897777478867205 3
endloop
endfacet
facet normal 0 0 1
outer loop
vertex 20 18.337769855541488 3
vertex 20 19.114226990849048 3
vertex 13.763394248251057 19.114226990849048 3
endloop
endfacet
facet normal 0 0 1
outer loop
vertex 20 18.337769855541488 3
vertex 13.763394248251057 19.114226990849048 3
vertex 10.865616769383854 18.337769855541488 3
endloop
endfacet
facet normal 0 0 1
outer loop
vertex 6.325765385825234 17.121320343559645 3
vertex 4.255213025005069 24.848726953872195 3
vertex 0 24.848726953872195 3
endloop
endfacet
facet normal 0 0 1
outer loop
vertex 6.325765385825234 17.121320343559645 3
vertex 0 24.848726953872195 3
vertex 0 17.121320343559645 3
endloop
endfacet
facet normal 0 0 1
outer loop
vertex 4.255213025005069 24.848726953872195 3
vertex 7.152990503872279 25.625184089179754 3
vertex 0 25.625184089179754 3
endloop
endfacet
facet normal 0 0 1
outer loop
vertex 4.255213025005069 24.848726953872195 3
vertex 0 25.625184089179754 3
vertex 0 24.848726953872195 3
endloop
endfacet
facet normal 0 0 1
outer loop
vertex 10.865616769383854 18.337769855541488 3
vertex 8.912960010569419 25.625184089179754 3
vertex 7.152990503872279 25.625184089179754 3
endloop
endfacet
facet normal 0 0 1
outer loop
vertex 10.865616769383854 18.337769855541488 3
vertex 7.152990503872279 25.625184089179754 3
vertex 9.105647262686716 18.337769855541488 3
endloop
endfacet
facet normal 0 0 1
outer loop
vertex 7.152990503872279 25.625184089179754 3
vertex 8.912960010569419 25.625184089179754 3
vertex 8.795064408563695 26.065176465854037 3
endloop
endfacet
facet normal 0 0 1
outer loop
vertex 7.152990503872279 25.625184089179754 3
vertex 8.795064408563695 26.065176465854037 3
vertex 0 26.065176465854037 3
endloop
endfacet
facet normal 0 0 1
outer loop
vertex 7.152990503872279 25.625184089179754 3
vertex 0 26.065176465854037 3
vertex 0 25.625184089179754 3
endloop
endfacet
facet normal 0 0 1
outer loop
vertex 8.795064408563695 26.065176465854037 3
vertex 11.692841887430896 26.841633601161597 3
vertex 0 26.841633601161597 3
endloop
endfacet
facet normal 0 0 1
outer loop
vertex 8.795064408563695 26.065176465854037 3
vertex 0 26.841633601161597 3
vertex 0 26.065176465854037 3
endloop
endfacet
facet normal 0 0 1
outer loop
vertex 20 19.114226990849048 3
vertex 20 26.841633601161597 3
vertex 11.692841887430896 26.841633601161597 3
endloop
endfacet
facet normal 0 0 1
outer loop
vertex 20 19.114226990849048 3
vertex 11.692841887430896 26.841633601161597 3
vertex 13.763394248251057 19.114226990849048 3
endloop
endfacet
facet normal 0 0 1
outer loop
vertex 11.692841887430896 26.841633601161597 3
vertex 20 26.841633601161597 3
vertex 20 30 3
endloop
endfacet
facet normal 0 0 1
outer loop
vertex 11.692841887430896 26.841633601161597 3
vertex 20 30 3
vertex 0 30 3
endloop
endfacet
facet normal 0 0 1
outer loop
vertex 11.692841887430896 26.841633601161597 3
vertex 0 30 3
vertex 0 26.841633601161597 3
endloop
endfacet
facet normal -0.9659258262890684 -0.25881904510252046 0
outer loop
vertex 6.325765385825234 17.121320343559645 3
vertex 6.325765385825233 17.121320343559642 5
vertex 4.255213025005067 24.848726953872188 5
endloop
endfacet
facet normal -0.9659258262890684 -0.25881904510252046 0
outer loop
vertex 6.325765385825234 17.121320343559645 3
vertex 4.255213025005067 24.848726953872188 5
vertex 4.255213025005069 24.848726953872195 3
endloop
endfacet
facet normal 0 0 -1
outer loop
vertex 9.22354286469244 17.897777478867205 3
vertex 9.105647262686716 18.337769855541488 3
vertex 7.152990503872279 25.625184089179754 3
endloop
endfacet
facet normal 0 0 -1
outer loop
vertex 9.22354286469244 17.897777478867205 3
vertex 7.152990503872279 25.625184089179754 3
vertex 7.152990503872272 25.62518408917975 5
endloop
endfacet
facet normal 0 0 -1
outer loop
vertex 9.22354286469244 17.897777478867205 3
vertex 7.152990503872272 25.62518408917975 5
vertex 9.223542864692437 17.897777478867205 5
endloop
endfacet
facet normal 0.2588190451025201 -0.9659258262890685 0
outer loop
vertex 13.76339424825106 19.114226990849048 5.000000000000002
vertex 10.865616769383855 18.33776985554149 5.000000000000002
vertex 10.865616769383854 18.337769855541488 3
endloop
endfacet
facet normal 0.2588190451025201 -0.9659258262890685 0
outer loop
vertex 13.76339424825106 19.114226990849048 5.000000000000002
vertex 10.865616769383854 18.337769855541488 3
vertex 13.763394248251057 19.114226990849048 3
endloop
endfacet
facet normal 0.2588190451025201 -0.9659258262890685 0
outer loop
vertex 9.223542864692437 17.897777478867205 5
vertex 6.325765385825233 17.121320343559642 5
vertex 6.325765385825234 17.121320343559645 3
endloop
endfacet
facet normal 0.2588190451025201 -0.9659258262890685 0
outer loop
vertex 9.223542864692437 17.897777478867205 5
vertex 6.325765385825234 17.121320343559645 3
vertex 9.22354286469244 17.897777478867205 3
endloop
endfacet
facet normal -0.2588190451025201 0.9659258262890685 0
outer loop
vertex 4.255213025005067 24.848726953872188 5
vertex 7.152990503872272 25.62518408917975 5
vertex 7.152990503872279 25.625184089179754 3
endloop
endfacet
facet normal -0.2588190451025201 0.9659258262890685 0
outer loop
vertex 4.255213025005067 24.848726953872188 5
vertex 7.152990503872279 25.625184089179754 3
vertex 4.255213025005069 24.848726953872195 3
endloop
endfacet
facet normal -0.2588190451025201 0.9659258262890685 0
outer loop
vertex 8.795064408563688 26.065176465854037 5.000000000000002
vertex 11.692841887430891 26.841633601161597 5.000000000000002
vertex 11.692841887430896 26.841633601161597 3
endloop
endfacet
facet normal -0.2588190451025201 0.9659258262890685 0
outer loop
vertex 8.795064408563688 26.065176465854037 5.000000000000002
vertex 11.692841887430896 26.841633601161597 3
vertex 8.795064408563695 26.065176465854037 3
endloop
endfacet
facet normal 0 0 1
outer loop
vertex 13.763394248251057 10.885773009150949 5
vertex 10.865616769383854 11.66223014445851 5
vertex 8.795064408563688 3.9348235341459645 5
endloop
endfacet
facet normal 0 0 1
outer loop
vertex 13.763394248251057 10.885773009150949 5
vertex 8.795064408563688 3.9348235341459645 5
vertex 11.692841887430891 3.1583663988384014 5
endloop
endfacet
facet normal 0 0 1
outer loop
vertex 9.223542864692437 12.102222521132795 5
vertex 6.325765385825233 12.878679656440358 5
vertex 4.255213025005067 5.1512730461278124 5
endloop
endfacet
facet normal 0 0 1
outer loop
vertex 9.223542864692437 12.102222521132795 5
vertex 4.255213025005067 5.1512730461278124 5
vertex 7.152990503872272 4.374815910820249 5
endloop
endfacet
facet normal 0 0 1
outer loop
vertex 9.223542864692437 17.897777478867205 5
vertex 7.152990503872272 25.62518408917975 5
vertex 4.255213025005067 24.848726953872188 5
endloop
endfacet
facet normal 0 0 1
outer loop
vertex 9.223542864692437 17.897777478867205 5
vertex 4.255213025005067 24.848726953872188 5
vertex 6.325765385825233 17.121320343559642 5
endloop
endfacet
facet normal 0 0 1
outer loop
vertex 13.76339424825106 19.114226990849048 5.000000000000002
vertex 11.692841887430891 26.841633601161597 5.000000000000002
vertex 8.795064408563688 26.065176465854037 5.000000000000002
endloop
endfacet
facet normal 0 0 1
outer loop
vertex 13.76339424825106 19.114226990849048 5.000000000000002
vertex 8.795064408563688 26.065176465854037 5.000000000000002
vertex 10.865616769383855 18.33776985554149 5.000000000000002
endloop
endfacet
facet normal -0.9659258262890686 -0.2588190451025198 1.2949804842696717e-15
outer loop
vertex 8.912960010569419 25.625184089179754 3
vertex 10.865616769383854 18.337769855541488 3
vertex 10.865616769383855 18.33776985554149 5.000000000000002
endloop
endfacet
facet normal -0.9659258262890686 -0.2588190451025198 1.2949804842696717e-15
outer loop
vertex 8.912960010569419 25.625184089179754 3
vertex 10.865616769383855 18.33776985554149 5.000000000000002
vertex 8.795064408563688 26.065176465854037 5.000000000000002
endloop
endfacet
facet normal -0.9659258262890686 -0.2588190451025198 1.2949804842696717e-15
outer loop
vertex 8.912960010569419 25.625184089179754 3
vertex 8.795064408563688 26.065176465854037 5.000000000000002
vertex 8.795064408563695 26.065176465854037 3
endloop
endfacet
facet normal 0.9659258262890685 0.2588190451025201 0
outer loop
vertex 13.763394248251057 19.114226990849048 3
vertex 11.692841887430896 26.841633601161597 3
vertex 11.692841887430891 26.841633601161597 5.000000000000002
endloop
endfacet
facet normal 0.9659258262890685 0.2588190451025201 0
outer loop
vertex 13.763394248251057 19.114226990849048 3
vertex 11.692841887430891 26.841633601161597 5.000000000000002
vertex 13.76339424825106 19.114226990849048 5.000000000000002
endloop
endfacet
facet normal -0.9659258262890684 0.25881904510252046 0
outer loop
vertex 4.2552130250050695 5.1512730461278045 3
vertex 4.255213025005067 5.1512730461278124 5
vertex 6.325765385825233 12.878679656440358 5
endloop
endfacet
facet normal -0.9659258262890684 0.25881904510252046 0
outer loop
vertex 4.2552130250050695 5.1512730461278045 3
vertex 6.325765385825233 12.878679656440358 5
vertex 6.325765385825235 12.878679656440358 3
endloop
endfacet
facet normal 0.9659258262890683 -0.2588190451025207 3.885780586188049e-15
outer loop
vertex 9.223542864692437 12.102222521132795 5
vertex 7.152990503872272 4.374815910820249 5
vertex 7.152990503872278 4.374815910820243 3
endloop
endfacet
facet normal 0.9659258262890683 -0.2588190451025207 3.885780586188049e-15
outer loop
vertex 9.223542864692437 12.102222521132795 5
vertex 7.152990503872278 4.374815910820243 3
vertex 9.105647262686716 11.66223014445851 3
endloop
endfacet
facet normal 0.9659258262890683 -0.2588190451025207 3.885780586188049e-15
outer loop
vertex 9.223542864692437 12.102222521132795 5
vertex 9.105647262686716 11.66223014445851 3
vertex 9.22354286469244 12.102222521132795 3
endloop
endfacet
facet normal 0.2588190451025213 0.9659258262890682 0
outer loop
vertex 6.325765385825233 12.878679656440358 5
vertex 9.223542864692437 12.102222521132795 5
vertex 9.22354286469244 12.102222521132795 3
endloop
endfacet
facet normal 0.2588190451025213 0.9659258262890682 0
outer loop
vertex 6.325765385825233 12.878679656440358 5
vertex 9.22354286469244 12.102222521132795 3
vertex 6.325765385825235 12.878679656440358 3
endloop
endfacet
facet normal 0.2588190451025213 0.9659258262890682 0
outer loop
vertex 10.865616769383854 11.66223014445851 5
vertex 13.763394248251057 10.885773009150949 5
vertex 13.763394248251055 10.885773009150947 3
endloop
endfacet
facet normal 0.2588190451025213 0.9659258262890682 0
outer loop
vertex 10.865616769383854 11.66223014445851 5
vertex 13.763394248251055 10.885773009150947 3
vertex 10.86561676938385 11.66223014445851 3
endloop
endfacet
facet normal -0.25881904510251985 -0.9659258262890686 0
outer loop
vertex 11.692841887430891 3.1583663988384014 5
vertex 8.795064408563688 3.9348235341459645 5
vertex 8.795064408563677 3.934823534145964 3
endloop
endfacet
facet normal -0.25881904510251985 -0.9659258262890686 0
outer loop
vertex 11.692841887430891 3.1583663988384014 5
vertex 8.795064408563677 3.934823534145964 3
vertex 11.692841887430882 3.1583663988384045 3
endloop
endfacet
facet normal -0.25881904510251985 -0.9659258262890686 0
outer loop
vertex 7.152990503872272 4.374815910820249 5
vertex 4.255213025005067 5.1512730461278124 5
vertex 4.2552130250050695 5.1512730461278045 3
endloop
endfacet
facet normal -0.25881904510251985 -0.9659258262890686 0
outer loop
vertex 7.152990503872272 4.374815910820249 5
vertex 4.2552130250050695 5.1512730461278045 3
vertex 7.152990503872278 4.374815910820243 3
endloop
endfacet
facet normal -0.9659258262890679 0.25881904510252246 5.087862197432846e-15
outer loop
vertex 8.912960010569401 4.374815910820243 3
vertex 8.795064408563677 3.934823534145964 3
vertex 8.795064408563688 3.9348235341459645 5
endloop
endfacet
facet normal -0.9659258262890679 0.25881904510252246 5.087862197432846e-15
outer loop
vertex 8.912960010569401 4.374815910820243 3
vertex 8.795064408563688 3.9348235341459645 5
vertex 10.865616769383854 11.66223014445851 5
endloop
endfacet
facet normal -0.9659258262890679 0.25881904510252246 5.087862197432846e-15
outer loop
vertex 8.912960010569401 4.374815910820243 3
vertex 10.865616769383854 11.66223014445851 5
vertex 10.86561676938385 11.66223014445851 3
endloop
endfacet
facet normal 0.9659258262890681 -0.25881904510252174 0
outer loop
vertex 13.763394248251057 10.885773009150949 5
vertex 11.692841887430891 3.1583663988384014 5
vertex 11.692841887430882 3.1583663988384045 3
endloop
endfacet
facet normal 0.9659258262890681 -0.25881904510252174 0
outer loop
vertex 13.763394248251057 10.885773009150949 5
vertex 11.692841887430882 3.1583663988384045 3
vertex 13.763394248251055 10.885773009150947 3
endloop
endfacet
endsolid csg.js
